<svg id="eXfakCWgPui1" xmlns="http://www.w3.org/2000/svg" xmlns:xlink="http://www.w3.org/1999/xlink" viewBox="0 0 300 300" shape-rendering="geometricPrecision" text-rendering="geometricPrecision" project-id="a460bc9f802d4a598149712c40c4c0e6" export-id="aa1c6e0b8c034758805092b117dea80a" cached="false"><path d="M2,6C2,4.34315,3.34315,3,5,3h14c1.6569,0,3,1.34315,3,3v9c0,1.6569-1.3431,3-3,3h-6v1h2c.5523,0,1,.4477,1,1s-.4477,1-1,1h-6c-.55228,0-1-.4477-1-1s.44772-1,1-1h2v-1h-6c-1.65685,0-3-1.3431-3-3v-9ZM5,5c-.55228,0-1,.44772-1,1v9c0,.5523.44772,1,1,1h14c.5523,0,1-.4477,1-1v-9c0-.55228-.4477-1-1-1L5,5Z" transform="matrix(.90523 0 0 0.722695 45.932054 215.7577)" clip-rule="evenodd" fill="#59408c" fill-rule="evenodd"/><path d="M3,19h18M6,17h12c1.1046,0,2-.8954,2-2v-7c0-1.10457-.8954-2-2-2L6,6C4.89543,6,4,6.89543,4,8v7c0,1.1046.89543,2,2,2Z" transform="translate(189.63165 246.127627)" fill="none" stroke="#b0c9ff" stroke-width="2" stroke-linecap="round" stroke-linejoin="round"/><path d="M3,19h18M6,17h12c1.1046,0,2-.8954,2-2v-7c0-1.10457-.8954-2-2-2L6,6C4.89543,6,4,6.89543,4,8v7c0,1.1046.89543,2,2,2Z" transform="translate(221.817613 57.035091)" fill="none" stroke="#59408c" stroke-width="2" stroke-linecap="round" stroke-linejoin="round"/><path d="M12,16c-1.3807,0-2.5,1.1193-2.5,2.5s1.1193,2.5,2.5,2.5s2.5-1.1193,2.5-2.5-1.1193-2.5-2.5-2.5Zm0,0v-4M5.5,8C6.88071,8,8,6.88071,8,5.5s-1.11929-2.5-2.5-2.5-2.5,1.11929-2.5,2.5s1.11929,2.5,2.5,2.5Zm0,0v.8c0,1.12011,0,1.6802.21799,2.108.19174.3763.4977.6823.87403.874C7.01984,12,7.57989,12,8.7,12h6.6c1.1201,0,1.6802,0,2.108-.218.3763-.1917.6823-.4977.874-.874.218-.4278.218-.98789.218-2.108v-.8m0,0C19.8807,8,21,6.88071,21,5.5s-1.1193-2.5-2.5-2.5-2.5,1.11929-2.5,2.5s1.1193,2.5,2.5,2.5Z" transform="translate(129 103.131873)" fill="none" stroke="#b0c9ff" stroke-width="2" stroke-linecap="round" stroke-linejoin="round"/><path d="M3,3h-3v11h16v-11h-3L11,1h-6L3,3Zm5,8c1.65685,0,3-1.34315,3-3s-1.34315-3-3-3-3,1.34315-3,3s1.34315,3,3,3Z" transform="translate(22.64372 238.127627)" clip-rule="evenodd" fill="#b0c9ff" fill-rule="evenodd"/><path d="M3,3h-3v11h16v-11h-3L11,1h-6L3,3Zm5,8c1.65685,0,3-1.34315,3-3s-1.34315-3-3-3-3,1.34315-3,3s1.34315,3,3,3Z" transform="translate(108.472955 81.480778)" clip-rule="evenodd" fill="#59408c" fill-rule="evenodd"/><g transform="translate(73.13609 78.715869)"><path d="M16.63,105.75c.01-4.03,2.3-7.97,6.03-12.38L1.09,79.73c-1.36-.59-1.33-1.42-.54-2.4l4.57-3.9c.83-.51,1.71-.73,2.66-.47l26.62,4.5L56.58,53.44L4.8,18.41c-1.31-.77-1.42-1.64-.07-2.65L12.2,9.8L79.7,28.77L99.64,7.45c6.69-5.79,13.19-8.38,18.18-7.15c2.75.68,3.72,1.5,4.57,4.08c1.65,5.06-.91,11.86-6.96,18.86L94.11,43.18l18.97,67.5-5.96,7.47c-1.01,1.34-1.88,1.23-2.65-.07L69.43,66.31L45.41,88.48l4.5,26.62c.26.94.05,1.82-.47,2.66l-3.9,4.57c-.97.79-1.81.82-2.4-.54L29.5,100.22c-4.43,3.74-8.37,6.03-12.42,6.03-.37-.01-.45-.14-.45-.5v0Z" transform="matrix(.136026 0 0 0.157094-25.393885 166.91172)" clip-rule="evenodd" fill="#59408c" fill-rule="evenodd"/></g><g transform="translate(158.678934-90.876667)"><path d="M16.63,105.75c.01-4.03,2.3-7.97,6.03-12.38L1.09,79.73c-1.36-.59-1.33-1.42-.54-2.4l4.57-3.9c.83-.51,1.71-.73,2.66-.47l26.62,4.5L56.58,53.44L4.8,18.41c-1.31-.77-1.42-1.64-.07-2.65L12.2,9.8L79.7,28.77L99.64,7.45c6.69-5.79,13.19-8.38,18.18-7.15c2.75.68,3.72,1.5,4.57,4.08c1.65,5.06-.91,11.86-6.96,18.86L94.11,43.18l18.97,67.5-5.96,7.47c-1.01,1.34-1.88,1.23-2.65-.07L69.43,66.31L45.41,88.48l4.5,26.62c.26.94.05,1.82-.47,2.66l-3.9,4.57c-.97.79-1.81.82-2.4-.54L29.5,100.22c-4.43,3.74-8.37,6.03-12.42,6.03-.37-.01-.45-.14-.45-.5v0Z" transform="matrix(.136026 0 0 0.157094-25.393885 166.91172)" clip-rule="evenodd" fill="#59408c" fill-rule="evenodd"/></g><ellipse rx="30" ry="30" transform="matrix(.322353 0 0 0.294338 256.563763 50.177451)" fill="#d2dbed" stroke-width="0"/><ellipse style="mix-blend-mode:overlay" rx="30" ry="30" transform="matrix(.322353 0 0 0.294338 171.405068 247.957767)" fill="#59408c" stroke-width="0"/></svg>
