<svg id="eVBY2kPXL4i1" xmlns="http://www.w3.org/2000/svg" xmlns:xlink="http://www.w3.org/1999/xlink" viewBox="0 0 300 300" shape-rendering="geometricPrecision" text-rendering="geometricPrecision" project-id="a460bc9f802d4a598149712c40c4c0e6" export-id="bd0ae198cc7a41808fb33efcc6705bda" cached="false"><rect width="22.12785" height="75.100582" rx="5" ry="5" transform="matrix(.079597-.053976 0.089335 0.131739 37.80772 228.998603)" fill="#59408c" stroke-width="0"/><rect width="22.12785" height="75.100582" rx="5" ry="5" transform="matrix(1.028697 0.509835-.034122 0.068847 60.993075 16.259658)" fill="#59408c" stroke-width="0"/><rect width="22.12785" height="75.100582" rx="5" ry="5" transform="matrix(-.440697 0.999649-.108939-.048026 253.63388 109.104762)" fill="#59408c" stroke-width="0"/><rect width="22.12785" height="75.100582" rx="5" ry="5" transform="matrix(-.502665 1.140214-.127197-.056075 278.573557 232.015489)" fill="#59408c" stroke-width="0"/><ellipse rx="13.330757" ry="12.661515" transform="matrix(.572448 0 0 0.510775 28.712157 255.133481)" fill="#b0c9ff" stroke-width="0"/><ellipse rx="13.330757" ry="12.661515" transform="matrix(.714265 0 0 0.649689 26.821629 18.844894)" fill="#b0c9ff" stroke-width="0"/><ellipse rx="13.330757" ry="12.661515" transform="matrix(.61372 0 0 0.700447 239.517966 89.700792)" fill="#b0c9ff" stroke-width="0"/><ellipse rx="13.330757" ry="12.661515" transform="matrix(1.442642 0 0 1.344474 244.667369 267.794996)" fill="#b0c9ff" stroke-width="0"/></svg>
