<svg id="eqTIHSB196Y1" xmlns="http://www.w3.org/2000/svg" xmlns:xlink="http://www.w3.org/1999/xlink" viewBox="0 0 304 304" shape-rendering="geometricPrecision" text-rendering="geometricPrecision" project-id="d692a954fa254b7aaa5145be073e4cbb" export-id="6a4f4911704949838464b4af8ef96547" cached="false"><path d="M44.1,224c.513365-2.514963,2.847699-4.23267,5.401524-3.974681s4.497455,2.407857,4.497455,4.974681-1.943629,4.716692-4.497455,4.974681-4.888159-1.459718-5.401524-3.974681L0,226v-2h44.1Zm160,48c.513365-2.514963,2.847699-4.23267,5.401524-3.974681s4.497455,2.407857,4.497455,4.974681-1.943629,4.716692-4.497455,4.974681-4.888159-1.459718-5.401524-3.974681L82,274v-2h122.1Zm57.8-46c-.513365,2.514963-2.847699,4.23267-5.401524,3.974681s-4.497455-2.407857-4.497455-4.974681s1.943629-4.716692,4.497455-4.974681s4.888159,1.459718,5.401524,3.974681h42.1v2h-42.1Zm0,16c-.513365,2.514963-2.847699,4.23267-5.401524,3.974681s-4.497455-2.407857-4.497455-4.974681s1.943629-4.716692,4.497455-4.974681s4.888159,1.459718,5.401524,3.974681h42.1v2h-42.1Zm6.2-114c.513365-2.514963,2.847699-4.23267,5.401524-3.974681s4.497455,2.407857,4.497455,4.974681-1.943629,4.716692-4.497455,4.974681-4.888159-1.459718-5.401524-3.974681h-86.2c-.513365,2.514963-2.847699,4.23267-5.401524,3.974681s-4.497455-2.407857-4.497455-4.974681s1.943629-4.716692,4.497455-4.974681s4.888159,1.459718,5.401524,3.974681h86.2ZM12.1,80c.513365-2.514963,2.847699-4.23267,5.401524-3.974681s4.497455,2.407857,4.497455,4.974681-1.943629,4.716692-4.497455,4.974681-4.888159-1.459718-5.401524-3.974681L0,82v-2h12.1Zm185.8,34c-.513365,2.514963-2.847699,4.23267-5.401524,3.974681s-4.497455-2.407857-4.497455-4.974681s1.943629-4.716692,4.497455-4.974681s4.888159,1.459718,5.401524,3.974681h86.2c.513365-2.514963,2.847699-4.23267,5.401524-3.974681s4.497455,2.407857,4.497455,4.974681-1.943629,4.716692-4.497455,4.974681-4.888159-1.459718-5.401524-3.974681h-86.2ZM258,12.1c2.514963.513365,4.23267,2.847699,3.974681,5.401524s-2.407857,4.497455-4.974681,4.497455-4.716692-1.943629-4.974681-4.497455s1.459718-4.888159,3.974681-5.401524L256,0h2v12.1Zm-64,208c2.514963.513365,4.23267,2.847699,3.974681,5.401524s-2.407857,4.497455-4.974681,4.497455-4.716692-1.943629-4.974681-4.497455s1.459718-4.888159,3.974681-5.401524v-54.2c-2.514963-.513365-4.23267-2.847699-3.974681-5.401524s2.407857-4.497455,4.974681-4.497455s4.716692,1.943629,4.974681,4.497455-1.459718,4.888159-3.974681,5.401524v54.2ZM242,21.9v58.1h62v2h-64v-60.1c-2.514963-.513365-4.23267-2.847699-3.974681-5.401524s2.407857-4.497455,4.974681-4.497455s4.716692,1.943629,4.974681,4.497455-1.459718,4.888159-3.974681,5.401524Zm16,16v26.1h46v2h-48v-28.1c-2.514963-.513365-4.23267-2.847699-3.974681-5.401524s2.407857-4.497455,4.974681-4.497455s4.716692,1.943629,4.974681,4.497455-1.459718,4.888159-3.974681,5.401524Zm-128,96v74.1h16v12.1c2.514963.513365,4.23267,2.847699,3.974681,5.401524s-2.407857,4.497455-4.974681,4.497455-4.716692-1.943629-4.974681-4.497455s1.459718-4.888159,3.974681-5.401524v-10.1h-16v-76.1c-2.514963-.513365-4.23267-2.847699-3.974681-5.401524s2.407857-4.497455,4.974681-4.497455s4.716692,1.943629,4.974681,4.497455-1.459718,4.888159-3.974681,5.401524ZM124.1,112c.513365-2.514963,2.847699-4.23267,5.401524-3.974681s4.497455,2.407857,4.497455,4.974681-1.943629,4.716692-4.497455,4.974681-4.888159-1.459718-5.401524-3.974681h-10.1v48h-28.1c-.513365,2.514963-2.847699,4.23267-5.401524,3.974681s-4.497455-2.407857-4.497455-4.974681s1.943629-4.716692,4.497455-4.974681s4.888159,1.459718,5.401524,3.974681h26.1v-48h12.1Zm-6.2,130c-.513365,2.514963-2.847699,4.23267-5.401524,3.974681s-4.497455-2.407857-4.497455-4.974681s1.943629-4.716692,4.497455-4.974681s4.888159,1.459718,5.401524,3.974681h58.1v-74.1c-2.514963-.513365-4.23267-2.847699-3.974681-5.401524s2.407857-4.497455,4.974681-4.497455s4.716692,1.943629,4.974681,4.497455-1.459718,4.888159-3.974681,5.401524v76.1h-60.1Zm-16-64c-.513365,2.514963-2.847699,4.23267-5.401524,3.974681s-4.497455-2.407857-4.497455-4.974681s1.943629-4.716692,4.497455-4.974681s4.888159,1.459718,5.401524,3.974681h12.1v48h10.1c.513365-2.514963,2.847699-4.23267,5.401524-3.974681s4.497455,2.407857,4.497455,4.974681-1.943629,4.716692-4.497455,4.974681-4.888159-1.459718-5.401524-3.974681h-12.1v-48h-10.1ZM66,284.1c2.514963.513365,4.23267,2.847699,3.974681,5.401524s-2.407857,4.497455-4.974681,4.497455-4.716692-1.943629-4.974681-4.497455s1.459718-4.888159,3.974681-5.401524v-10.1h-14v30h-2v-32h18v12.1ZM236.1,176c.513365-2.514963,2.847699-4.23267,5.401524-3.974681s4.497455,2.407857,4.497455,4.974681-1.943629,4.716692-4.497455,4.974681-4.888159-1.459718-5.401524-3.974681h-10.1v94h48v32h-2v-30h-48v-98h12.1Zm25.8-30c-.513365,2.514963-2.847699,4.23267-5.401524,3.974681s-4.497455-2.407857-4.497455-4.974681s1.943629-4.716692,4.497455-4.974681s4.888159,1.459718,5.401524,3.974681h12.1v44.1c2.514963.513365,4.23267,2.847699,3.974681,5.401524s-2.407857,4.497455-4.974681,4.497455-4.716692-1.943629-4.974681-4.497455s1.459718-4.888159,3.974681-5.401524v-42.1h-10.1Zm-64,96c-.513365,2.514963-2.847699,4.23267-5.401524,3.974681s-4.497455-2.407857-4.497455-4.974681s1.943629-4.716692,4.497455-4.974681s4.888159,1.459718,5.401524,3.974681h10.1v-80h16v-14h-42.1c-.513365,2.514963-2.847699,4.23267-5.401524,3.974681s-4.497455-2.407857-4.497455-4.974681s1.943629-4.716692,4.497455-4.974681s4.888159,1.459718,5.401524,3.974681h44.1v18h-16v80h-12.1ZM284.1,32c.513365-2.514963,2.847699-4.23267,5.401524-3.974681s4.497455,2.407857,4.497455,4.974681-1.943629,4.716692-4.497455,4.974681-4.888159-1.459718-5.401524-3.974681h-12.1v-34h2v32h10.1ZM98,101.9v44.1h-44.1c-.513365,2.514963-2.847699,4.23267-5.401524,3.974681s-4.497455-2.407857-4.497455-4.974681s1.943629-4.716692,4.497455-4.974681s4.888159,1.459718,5.401524,3.974681h42.1v-42.1c-2.514963-.513365-4.23267-2.847699-3.974681-5.401524s2.407857-4.497455,4.974681-4.497455s4.716692,1.943629,4.974681,4.497455-1.459718,4.888159-3.974681,5.401524ZM53.9,34c-.513365,2.514963-2.847699,4.23267-5.401524,3.974681s-4.497455-2.407857-4.497455-4.974681s1.943629-4.716692,4.497455-4.974681s4.888159,1.459718,5.401524,3.974681h26.1v-32h2v34h-28.1ZM114,37.9v28.1h-32v64h-12.1c-.513365,2.514963-2.847699,4.23267-5.401524,3.974681s-4.497455-2.407857-4.497455-4.974681s1.943629-4.716692,4.497455-4.974681s4.888159,1.459718,5.401524,3.974681h10.1v-64h32v-26.1c-2.514963-.513365-4.23267-2.847699-3.974681-5.401524s2.407857-4.497455,4.974681-4.497455s4.716692,1.943629,4.974681,4.497455-1.459718,4.888159-3.974681,5.401524ZM101.9,82c-.513365,2.514963-2.847699,4.23267-5.401524,3.974681s-4.497455-2.407857-4.497455-4.974681s1.943629-4.716692,4.497455-4.974681s4.888159,1.459718,5.401524,3.974681h26.1v-42.1c-2.514963-.513365-4.23267-2.847699-3.974681-5.401524s2.407857-4.497455,4.974681-4.497455s4.716692,1.943629,4.974681,4.497455-1.459718,4.888159-3.974681,5.401524v44.1h-28.1Zm16-64c-.513365,2.514963-2.847699,4.23267-5.401524,3.974681s-4.497455-2.407857-4.497455-4.974681s1.943629-4.716692,4.497455-4.974681s4.888159,1.459718,5.401524,3.974681h28.1v44.1c2.514963.513365,4.23267,2.847699,3.974681,5.401524s-2.407857,4.497455-4.974681,4.497455-4.716692-1.943629-4.974681-4.497455s1.459718-4.888159,3.974681-5.401524v-42.1h-26.1ZM220.1,288c.513365-2.514963,2.847699-4.23267,5.401524-3.974681s4.497455,2.407857,4.497455,4.974681-1.943629,4.716692-4.497455,4.974681-4.888159-1.459718-5.401524-3.974681L98,290v14h-2v-16h124.1ZM242,149.9v10.1h16v34h-16v62h48v48h-2v-46h-48v-66h16v-30h-16v-12.1c-2.514963-.513365-4.23267-2.847699-3.974681-5.401524s2.407857-4.497455,4.974681-4.497455s4.716692,1.943629,4.974681,4.497455-1.459718,4.888159-3.974681,5.401524ZM53.9,18c-.513365,2.514963-2.847699,4.23267-5.401524,3.974681s-4.497455-2.407857-4.497455-4.974681s1.943629-4.716692,4.497455-4.974681s4.888159,1.459718,5.401524,3.974681h10.1v-14h-16v-2h18v18h-12.1Zm112,32c-.513365,2.514963-2.847699,4.23267-5.401524,3.974681s-4.497455-2.407857-4.497455-4.974681s1.943629-4.716692,4.497455-4.974681s4.888159,1.459718,5.401524,3.974681h26.1v-48h50v2h-48v48h-28.1Zm-48-48c-.552285,2.706195-3.193805,4.452285-5.9,3.9s-4.452285-3.193805-3.9-5.9h2.07c-.437197,1.242809-.012394,2.625422,1.047203,3.408347s2.505997.782924,3.565594,0s1.4844-2.165538,1.047203-3.408347L178,0v34h-18v-12.1c-2.514963-.513365-4.23267-2.847699-3.974681-5.401524s2.407857-4.497455,4.974681-4.497455s4.716692,1.943629,4.974681,4.497455-1.459718,4.888159-3.974681,5.401524v10.1h14v-30h-58.1Zm0,96c-.513365,2.514963-2.847699,4.23267-5.401524,3.974681s-4.497455-2.407857-4.497455-4.974681s1.943629-4.716692,4.497455-4.974681s4.888159,1.459718,5.401524,3.974681h19.1l32-32h39v-42.1c-2.514963-.513365-4.23267-2.847699-3.974681-5.401524s2.407857-4.497455,4.974681-4.497455s4.716692,1.943629,4.974681,4.497455-1.459718,4.888159-3.974681,5.401524v44.1h-40.17l-32,32h-19.93ZM146,188.1c2.514963.513365,4.23267,2.847699,3.974681,5.401524s-2.407857,4.497455-4.974681,4.497455-4.716692-1.943629-4.974681-4.497455s1.459718-4.888159,3.974681-5.401524v-76.51L175.59,80h48.41v-58.1c-2.514963-.513365-4.23267-2.847699-3.974681-5.401524s2.407857-4.497455,4.974681-4.497455s4.716692,1.943629,4.974681,4.497455-1.459718,4.888159-3.974681,5.401524v60.1h-49.59L146,112.41v75.69Zm16,32c2.514963.513365,4.23267,2.847699,3.974681,5.401524s-2.407857,4.497455-4.974681,4.497455-4.716692-1.943629-4.974681-4.497455s1.459718-4.888159,3.974681-5.401524v-99.51L184.59,96h115.51c.400605-1.964289,1.935711-3.499395,3.9-3.9v2.07c-1.200943.422469-2.00446,1.556915-2.00446,2.83s.803517,2.407531,2.00446,2.83v2.07c-1.964289-.400605-3.499395-1.935711-3.9-3.9h-114.69L162,121.41v98.69Zm-144-64c2.514963.513365,4.23267,2.847699,3.974681,5.401524s-2.407857,4.497455-4.974681,4.497455-4.716692-1.943629-4.974681-4.497455s1.459718-4.888159,3.974681-5.401524v-3.51l48-48L64,48h32v-48h2v50h-32v55.41l-48,48v2.69ZM50,53.9v43.51l-48,48L2,208h26.1c.513365-2.514963,2.847699-4.23267,5.401524-3.974681s4.497455,2.407857,4.497455,4.974681-1.943629,4.716692-4.497455,4.974681-4.888159-1.459718-5.401524-3.974681L0,210v-65.41l48-48v-42.69c-2.514963-.513365-4.23267-2.847699-3.974681-5.401524s2.407857-4.497455,4.974681-4.497455s4.716692,1.943629,4.974681,4.497455-1.459718,4.888159-3.974681,5.401524Zm-16,16v19.51l-34,34v-2.82l32-32v-18.69c-2.514963-.513365-4.23267-2.847699-3.974681-5.401524s2.407857-4.497455,4.974681-4.497455s4.716692,1.943629,4.974681,4.497455-1.459718,4.888159-3.974681,5.401524ZM12.1,32c.513365-2.514963,2.847699-4.23267,5.401524-3.974681s4.497455,2.407857,4.497455,4.974681-1.943629,4.716692-4.497455,4.974681-4.888159-1.459718-5.401524-3.974681h-2.69L0,43.41v-2.81L8.59,32h3.51ZM277.9,50c-.513365,2.514963-2.847699,4.23267-5.401524,3.974681s-4.497455-2.407857-4.497455-4.974681s1.943629-4.716692,4.497455-4.974681s4.888159,1.459718,5.401524,3.974681h18.69L304,40.59v2.82L297.41,50h-19.51Zm-16,160c-.513365,2.514963-2.847699,4.23267-5.401524,3.974681s-4.497455-2.407857-4.497455-4.974681s1.943629-4.716692,4.497455-4.974681s4.888159,1.459718,5.401524,3.974681h26.1v-71.41l16-16v2.82l-14,14v72.59h-28.1Zm-208,32c-.513365,2.514963-2.847699,4.23267-5.401524,3.974681s-4.497455-2.407857-4.497455-4.974681s1.943629-4.716692,4.497455-4.974681s4.888159,1.459718,5.401524,3.974681h10.1v-22.59L40.59,194h-18.69c-.513365,2.514963-2.847699,4.23267-5.401524,3.974681s-4.497455-2.407857-4.497455-4.974681s1.943629-4.716692,4.497455-4.974681s4.888159,1.459718,5.401524,3.974681h19.51L66,216.59v25.41h-12.1Zm150.2,14c.513365-2.514963,2.847699-4.23267,5.401524-3.974681s4.497455,2.407857,4.497455,4.974681-1.943629,4.716692-4.497455,4.974681-4.888159-1.459718-5.401524-3.974681L96,258v-56.6L56.6,162h-18.7c-.513365,2.514963-2.847699,4.23267-5.401524,3.974681s-4.497455-2.407857-4.497455-4.974681s1.943629-4.716692,4.497455-4.974681s4.888159,1.459718,5.401524,3.974681h19.5L98,200.6v55.4h106.1ZM53.9,258c-.513365,2.514963-2.847699,4.23267-5.401524,3.974681s-4.497455-2.407857-4.497455-4.974681s1.943629-4.716692,4.497455-4.974681s4.888159,1.459718,5.401524,3.974681h26.1v-46.59L48.59,178h-26.69c-.513365,2.514963-2.847699,4.23267-5.401524,3.974681s-4.497455-2.407857-4.497455-4.974681s1.943629-4.716692,4.497455-4.974681s4.888159,1.459718,5.401524,3.974681h27.51L82,208.59v49.41h-28.1ZM34,39.8v1.61L9.41,66L0,66v-2h8.59L32,40.59L32,0h2v39.8ZM2,300.1c1.964289.400605,3.499395,1.935711,3.9,3.9h-2.07c-.264886-.750808-.817356-1.36553-1.53573-1.708774s-1.543725-.386854-2.29427-.121226L0,256h18v48h-2v-46h-14v42.1ZM34,241v63h-2v-62h-32v-2h34v1ZM17,18h-17v-2h16v-16h2v18h-1Zm273-2h14v2h-16v-18h2v16ZM258,289v15h-2v-14h-14v14h-2v-16h18v1ZM0,92.1c1.470221-.292663,2.994303.08704,4.155378,1.035251s1.837634,2.365698,1.844622,3.864749c.000306,1.501613-.674279,2.923859-1.837327,3.873681s-2.691398,1.326642-4.162673,1.026319v-2.07c1.242809.437197,2.625422.012394,3.408347-1.047203s.782924-2.505997,0-3.565594-2.165538-1.4844-3.408347-1.047203v-2.07ZM80,272h2v32h-2v-32Zm37.9,32h-2.07c-.422469-1.200943-1.556915-2.00446-2.83-2.00446s-2.407531.803517-2.83,2.00446h-2.07c.473192-2.330324,2.522118-4.005013,4.9-4.005013s4.426808,1.674689,4.9,4.005013ZM5.9,0c.325627,1.643337-.189976,3.340809-1.374583,4.525417s-2.88208,1.70021-4.525417,1.374583v-2.07c1.090328.386546,2.30576.111751,3.123755-.706245s1.092791-2.033427.706245-3.123755h2.07ZM300.1,0h2.07c-.265628.750545-.222017,1.575897.121226,2.29427s.957966,1.270844,1.708774,1.53573v2.07c-1.299694-.264973-2.440839-1.035523-3.172276-2.142055s-.993217-2.458358-.727724-3.757945ZM304,300.1v2.07c-.855278.301991-1.528009.974722-1.83,1.83h-2.07c.400605-1.964289,1.935711-3.499395,3.9-3.9ZM97,100c1.656854,0,3-1.343146,3-3s-1.343146-3-3-3-3,1.343146-3,3s1.343146,3,3,3Zm0-16c1.656854,0,3-1.343146,3-3s-1.343146-3-3-3-3,1.343146-3,3s1.343146,3,3,3Zm16,16c1.656854,0,3-1.343146,3-3s-1.343146-3-3-3-3,1.343146-3,3s1.343146,3,3,3Zm16,16c1.656854,0,3-1.343146,3-3s-1.343146-3-3-3-3,1.343146-3,3s1.343146,3,3,3Zm0,16c1.656854,0,3-1.343146,3-3s-1.343146-3-3-3-3,1.343146-3,3s1.343146,3,3,3ZM81,164c1.656854,0,3-1.343146,3-3s-1.343146-3-3-3-3,1.343146-3,3s1.343146,3,3,3Zm16,16c1.656854,0,3-1.343146,3-3s-1.343146-3-3-3-3,1.343146-3,3s1.343146,3,3,3Zm32,48c1.656854,0,3-1.343146,3-3s-1.343146-3-3-3-3,1.343146-3,3s1.343146,3,3,3Zm-16,16c1.656854,0,3-1.343146,3-3s-1.343146-3-3-3-3,1.343146-3,3s1.343146,3,3,3Zm32-16c1.656854,0,3-1.343146,3-3s-1.343146-3-3-3-3,1.343146-3,3s1.343146,3,3,3Zm0-32c1.656854,0,3-1.343146,3-3s-1.343146-3-3-3-3,1.343146-3,3s1.343146,3,3,3Zm16,32c1.656854,0,3-1.343146,3-3s-1.343146-3-3-3-3,1.343146-3,3s1.343146,3,3,3Zm32,16c1.656854,0,3-1.343146,3-3s-1.343146-3-3-3-3,1.343146-3,3s1.343146,3,3,3Zm0-16c1.656854,0,3-1.343146,3-3s-1.343146-3-3-3-3,1.343146-3,3s1.343146,3,3,3Zm-16-64c1.656854,0,3-1.343146,3-3s-1.343146-3-3-3-3,1.343146-3,3s1.343146,3,3,3Zm16,0c1.656854,0,3-1.343146,3-3s-1.343146-3-3-3-3,1.343146-3,3s1.343146,3,3,3Zm16,96c1.656854,0,3-1.343146,3-3s-1.343146-3-3-3-3,1.343146-3,3s1.343146,3,3,3Zm0,16c1.656854,0,3-1.343146,3-3s-1.343146-3-3-3-3,1.343146-3,3s1.343146,3,3,3Zm16,16c1.656854,0,3-1.343146,3-3s-1.343146-3-3-3-3,1.343146-3,3s1.343146,3,3,3Zm16-144c1.656854,0,3-1.343146,3-3s-1.343146-3-3-3-3,1.343146-3,3s1.343146,3,3,3Zm0,32c1.656854,0,3-1.343146,3-3s-1.343146-3-3-3-3,1.343146-3,3s1.343146,3,3,3Zm16-32c1.656854,0,3-1.343146,3-3s-1.343146-3-3-3-3,1.343146-3,3s1.343146,3,3,3Zm16-16c1.656854,0,3-1.343146,3-3s-1.343146-3-3-3-3,1.343146-3,3s1.343146,3,3,3Zm-96,0c1.656854,0,3-1.343146,3-3s-1.343146-3-3-3-3,1.343146-3,3s1.343146,3,3,3Zm0,16c1.656854,0,3-1.343146,3-3s-1.343146-3-3-3-3,1.343146-3,3s1.343146,3,3,3Zm16-32c1.656854,0,3-1.343146,3-3s-1.343146-3-3-3-3,1.343146-3,3s1.343146,3,3,3Zm96,0c1.656854,0,3-1.343146,3-3s-1.343146-3-3-3-3,1.343146-3,3s1.343146,3,3,3ZM273,52c1.656854,0,3-1.343146,3-3s-1.343146-3-3-3-3,1.343146-3,3s1.343146,3,3,3Zm16-16c1.656854,0,3-1.343146,3-3s-1.343146-3-3-3-3,1.343146-3,3s1.343146,3,3,3Zm-32,0c1.656854,0,3-1.343146,3-3s-1.343146-3-3-3-3,1.343146-3,3s1.343146,3,3,3Zm0-16c1.656854,0,3-1.343146,3-3s-1.343146-3-3-3-3,1.343146-3,3s1.343146,3,3,3Zm-16,0c1.656854,0,3-1.343146,3-3s-1.343146-3-3-3-3,1.343146-3,3s1.343146,3,3,3Zm-16,0c1.656854,0,3-1.343146,3-3s-1.343146-3-3-3-3,1.343146-3,3s1.343146,3,3,3Zm-16,0c1.656854,0,3-1.343146,3-3s-1.343146-3-3-3-3,1.343146-3,3s1.343146,3,3,3ZM49,36c1.656854,0,3-1.343146,3-3s-1.343146-3-3-3-3,1.343146-3,3s1.343146,3,3,3ZM17,36c1.656854,0,3-1.343146,3-3s-1.343146-3-3-3-3,1.343146-3,3s1.343146,3,3,3ZM49,52c1.656854,0,3-1.343146,3-3s-1.343146-3-3-3-3,1.343146-3,3s1.343146,3,3,3ZM33,68c1.656854,0,3-1.343146,3-3s-1.343146-3-3-3-3,1.343146-3,3s1.343146,3,3,3ZM49,20c1.656854,0,3-1.343146,3-3s-1.343146-3-3-3-3,1.343146-3,3s1.343146,3,3,3Zm0,240c1.656854,0,3-1.343146,3-3s-1.343146-3-3-3-3,1.343146-3,3s1.343146,3,3,3Zm16,32c1.656854,0,3-1.343146,3-3s-1.343146-3-3-3-3,1.343146-3,3s1.343146,3,3,3ZM49,228c1.656854,0,3-1.343146,3-3s-1.343146-3-3-3-3,1.343146-3,3s1.343146,3,3,3Zm0,16c1.656854,0,3-1.343146,3-3s-1.343146-3-3-3-3,1.343146-3,3s1.343146,3,3,3ZM33,212c1.656854,0,3-1.343146,3-3s-1.343146-3-3-3-3,1.343146-3,3s1.343146,3,3,3ZM113,36c1.656854,0,3-1.343146,3-3s-1.343146-3-3-3-3,1.343146-3,3s1.343146,3,3,3Zm16,0c1.656854,0,3-1.343146,3-3s-1.343146-3-3-3-3,1.343146-3,3s1.343146,3,3,3ZM113,20c1.656854,0,3-1.343146,3-3s-1.343146-3-3-3-3,1.343146-3,3s1.343146,3,3,3Zm32,48c1.656854,0,3-1.343146,3-3s-1.343146-3-3-3-3,1.343146-3,3s1.343146,3,3,3Zm16-16c1.656854,0,3-1.343146,3-3s-1.343146-3-3-3-3,1.343146-3,3s1.343146,3,3,3Zm0-32c1.656854,0,3-1.343146,3-3s-1.343146-3-3-3-3,1.343146-3,3s1.343146,3,3,3ZM273,196c1.656854,0,3-1.343146,3-3s-1.343146-3-3-3-3,1.343146-3,3s1.343146,3,3,3Zm-16,16c1.656854,0,3-1.343146,3-3s-1.343146-3-3-3-3,1.343146-3,3s1.343146,3,3,3Zm0,16c1.656854,0,3-1.343146,3-3s-1.343146-3-3-3-3,1.343146-3,3s1.343146,3,3,3Zm0,16c1.656854,0,3-1.343146,3-3s-1.343146-3-3-3-3,1.343146-3,3s1.343146,3,3,3ZM17,180c1.656854,0,3-1.343146,3-3s-1.343146-3-3-3-3,1.343146-3,3s1.343146,3,3,3Zm0,16c1.656854,0,3-1.343146,3-3s-1.343146-3-3-3-3,1.343146-3,3s1.343146,3,3,3Zm0-32c1.656854,0,3-1.343146,3-3s-1.343146-3-3-3-3,1.343146-3,3s1.343146,3,3,3Zm16,0c1.656854,0,3-1.343146,3-3s-1.343146-3-3-3-3,1.343146-3,3s1.343146,3,3,3ZM17,84c1.656854,0,3-1.343146,3-3s-1.343146-3-3-3-3,1.343146-3,3s1.343146,3,3,3Zm32,64c1.656854,0,3-1.343146,3-3s-1.343146-3-3-3-3,1.343146-3,3s1.343146,3,3,3Zm16-16c1.656854,0,3-1.343146,3-3s-1.343146-3-3-3-3,1.343146-3,3s1.343146,3,3,3Z"/></svg>
